<svg width="24" height="18" viewBox="0 0 24 18" fill="none" xmlns="http://www.w3.org/2000/svg">
<path fill-rule="evenodd" clip-rule="evenodd" d="M18.8942 6.25214C18.776 6.23749 18.6817 6.14523 18.6652 6.02733C18.2971 3.3929 16.1542 0.102539 12.0015 0.102539C7.53713 0.102539 5.70142 3.7395 5.34546 6.03065C5.3274 6.14695 5.23358 6.23726 5.11677 6.25158C2.16793 6.6128 0.171509 8.87263 0.171509 11.98C0.171509 14.245 1.50651 16.3125 3.59526 17.2575C4.59901 17.6638 5.47026 17.725 5.90026 17.725H8.4285C8.67662 17.725 8.87776 17.5239 8.87776 17.2758C8.87776 17.0084 8.6448 16.803 8.37775 16.7905C7.63233 16.7559 6.89802 16.4614 6.32901 15.8913C5.10776 14.6713 5.10776 12.6925 6.32901 11.4725L9.79025 8.01125C9.93649 7.865 10.0965 7.73375 10.269 7.61875C10.3452 7.56875 10.4265 7.53375 10.5052 7.49004C10.6052 7.43629 10.7015 7.37629 10.8065 7.33254C10.9065 7.29129 11.0115 7.26754 11.114 7.23629C11.2065 7.20879 11.2952 7.17379 11.3902 7.15504C11.5815 7.11629 11.774 7.09879 11.9677 7.09629C11.979 7.09629 11.9902 7.09254 12.0015 7.09254C12.0115 7.09254 12.0202 7.09504 12.029 7.09629C12.2252 7.09754 12.4202 7.11629 12.6127 7.15504C12.7065 7.17379 12.7927 7.20754 12.884 7.23504C12.989 7.26629 13.0952 7.29004 13.1965 7.33254C13.2977 7.37504 13.3902 7.43129 13.4852 7.48379C13.569 7.52875 13.6552 7.56625 13.7352 7.62C13.889 7.7225 14.0302 7.84125 14.1627 7.96875C14.179 7.9825 14.1965 7.9925 14.2115 8.0075L17.6752 11.4713C18.8965 12.6925 18.8965 14.67 17.6752 15.8913C17.1169 16.4509 16.3906 16.7518 15.6259 16.7883C15.3591 16.801 15.1277 17.0068 15.1277 17.2738C15.1277 17.523 15.3299 17.725 15.5791 17.725H18.0915C18.5265 17.725 19.4052 17.665 20.4352 17.2525C22.4965 16.32 23.829 14.25 23.829 11.98C23.829 8.87625 21.8376 6.61694 18.8942 6.25214Z" fill="#F57463"/>
</svg>
